<?xml version="1.0" encoding="UTF-8" standalone="no"?>
<svg width="630px" height="630px" viewBox="0 0 630 630" version="1.1" xmlns="http://www.w3.org/2000/svg" xmlns:xlink="http://www.w3.org/1999/xlink" xmlns:sketch="http://www.bohemiancoding.com/sketch/ns">
    <!-- Generator: Sketch 3.3.2 (12043) - http://www.bohemiancoding.com/sketch -->
    <title>Slice 1</title>
    <desc>Created with Sketch.</desc>
    <defs></defs>
    <g id="Page-1" stroke="none" stroke-width="1" fill="none" fill-rule="evenodd" sketch:type="MSPage">
        <circle id="Oval-1" fill="#FF78B1" sketch:type="MSShapeGroup" cx="315" cy="315" r="315"></circle>
        <path d="M175.456,168.88 L222.928,168.88 L336.272,429.424 L271.504,429.424 L249.056,374.224 L147.856,374.224 L126.144,429.424 L62.8480004,429.424 L175.456,168.88 Z M197.536,244.688 L165.888,325.648 L229.552,325.648 L197.536,244.688 Z M511.584,236.592 C505.941305,229.722632 499.010707,224.448018 490.792,220.768 C482.573292,217.087982 473.06672,215.248 462.272,215.248 C451.477279,215.248 441.480046,217.333312 432.28,221.504 C423.079954,225.674688 415.1067,231.501296 408.36,238.984 C401.613299,246.466704 396.338685,255.359948 392.536,265.664 C388.733314,275.968052 386.832,287.130607 386.832,299.152 C386.832,311.418728 388.733314,322.642616 392.536,332.824 C396.338685,343.005384 401.551966,351.837296 408.176,359.32 C414.800033,366.802704 422.589288,372.629312 431.544,376.8 C440.498711,380.970688 450.127948,383.056 460.432,383.056 C472.208058,383.056 482.634621,380.602691 491.712,375.696 C500.789378,370.789309 508.27197,363.920044 514.16,355.088 L562,390.784 C550.959944,406.240077 536.976084,417.647963 520.048,425.008 C503.119915,432.368037 485.701422,436.048 467.792,436.048 C447.429231,436.048 428.661419,432.858699 411.488,426.48 C394.31458,420.101301 379.472062,410.962726 366.96,399.064 C354.447937,387.165274 344.696035,372.752085 337.704,355.824 C330.711965,338.895915 327.216,320.005438 327.216,299.152 C327.216,278.298562 330.711965,259.408085 337.704,242.48 C344.696035,225.551915 354.447937,211.138726 366.96,199.24 C379.472062,187.341274 394.31458,178.202699 411.488,171.824 C428.661419,165.445301 447.429231,162.256 467.792,162.256 C475.152036,162.256 482.818626,162.93066 490.792,164.28 C498.765373,165.62934 506.615961,167.775985 514.344,170.72 C522.072038,173.664015 529.493297,177.589309 536.608,182.496 C543.722702,187.402691 550.101305,193.413298 555.744,200.528 L511.584,236.592 Z" id="AC" fill="#F0FCFA" sketch:type="MSShapeGroup"></path>
    </g>
</svg>